<svg id="wave" style="transform:rotate(0deg); transition: 0.3s" viewBox="0 0 1440 490" version="1.1" xmlns="http://www.w3.org/2000/svg"><defs><linearGradient id="sw-gradient-0" x1="0" x2="0" y1="1" y2="0"><stop stop-color="rgba(243, 106, 62, 1)" offset="0%"></stop><stop stop-color="rgba(255, 179, 11, 1)" offset="100%"></stop></linearGradient></defs><path style="transform:translate(0, 0px); opacity:1" fill="url(#sw-gradient-0)" d="M0,245L80,245C160,245,320,245,480,204.2C640,163,800,82,960,40.8C1120,0,1280,0,1440,57.2C1600,114,1760,229,1920,294C2080,359,2240,376,2400,375.7C2560,376,2720,359,2880,367.5C3040,376,3200,408,3360,408.3C3520,408,3680,376,3840,318.5C4000,261,4160,180,4320,163.3C4480,147,4640,196,4800,220.5C4960,245,5120,245,5280,253.2C5440,261,5600,278,5760,310.3C5920,343,6080,392,6240,400.2C6400,408,6560,376,6720,326.7C6880,278,7040,212,7200,155.2C7360,98,7520,49,7680,98C7840,147,8000,294,8160,351.2C8320,408,8480,376,8640,367.5C8800,359,8960,376,9120,383.8C9280,392,9440,392,9600,326.7C9760,261,9920,131,10080,122.5C10240,114,10400,229,10560,294C10720,359,10880,376,11040,318.5C11200,261,11360,131,11440,65.3L11520,0L11520,490L11440,490C11360,490,11200,490,11040,490C10880,490,10720,490,10560,490C10400,490,10240,490,10080,490C9920,490,9760,490,9600,490C9440,490,9280,490,9120,490C8960,490,8800,490,8640,490C8480,490,8320,490,8160,490C8000,490,7840,490,7680,490C7520,490,7360,490,7200,490C7040,490,6880,490,6720,490C6560,490,6400,490,6240,490C6080,490,5920,490,5760,490C5600,490,5440,490,5280,490C5120,490,4960,490,4800,490C4640,490,4480,490,4320,490C4160,490,4000,490,3840,490C3680,490,3520,490,3360,490C3200,490,3040,490,2880,490C2720,490,2560,490,2400,490C2240,490,2080,490,1920,490C1760,490,1600,490,1440,490C1280,490,1120,490,960,490C800,490,640,490,480,490C320,490,160,490,80,490L0,490Z"></path></svg>